#!OML:ASF E:/inclinewalkrobotboard/Project1/Captureday1/Session1/subject1.ASF
:FULLY-SPECIFIED
:DEGREES
101
root 0 0 0 -1.0772713054084093 -2.72095077462407 -2.4547313312660313
lowerback 9.43386720186475 0.3508290173997902 0.6748142613701691
upperback 0.0024286092786756086 0.683543297870619 1.7358218867668866
thorax -5.184149219869218 0.3548221563975648 1.3498337848215232
lowerneck -16.486653810178016 -2.976870300427709 -1.9413360099930705
upperneck 19.866644445053073 -3.8125401982705993 0.685712957932687
head 9.047734683130315 -1.8506863128719098 0.07680477186530343
rclavicle -6.608181174155663E-16 -4.804734789859523E-16
rhumerus -23.88394939453334 -18.85729700497322 -75.00409276006421
rradius 27.036807639864254
rwrist 6.414809759346596
rhand -15.86766550608283 21.015752278094467
rfingers 7.125020000000035
rthumb 10.306803114625708 -8.469959158327363
lclavicle -6.601286334202541E-16 -3.1564173346204607E-16
lhumerus -29.72777452384541 1.4151338426516373 78.14199584970711
lradius 28.73023880631061
lwrist 3.204807216710666
lhand -23.898231438355133 23.320924497492005
lfingers 7.125020000000041
lthumb 2.5207468352946947 53.007796777617905
rfemur -2.6613870506143655 -7.960941857495541 14.16896882644636
rtibia 39.012298580851926
rfoot -8.95925951866264 -8.16911168216233
rtoes 6.3248733896580696
lfemur -13.965909035076756 -0.5922152563240441 -20.7242683529158
ltibia 34.225754306191924
lfoot -9.088538699631432 -0.5625667337566078
ltoes -2.1433939768774213
102
root 0 0 0 -1.0255423828470072 -2.749577216014517 -2.46740364954856
lowerback 9.408097934590565 0.3522690512335883 0.6710358918050279
upperback -0.015024420724618182 0.6848158588878032 1.7367009480488347
thorax -5.188512121496608 0.3557015403079099 1.3534131613200278
lowerneck -16.476378801449478 -2.9705624038032883 -1.937357102500079
upperneck 19.87287626934332 -3.80564992544681 0.6914214951339339
head 9.048532179750296 -1.8468173739723523 0.07861635375333642
rclavicle -6.599908633200904E-16 -4.785976899457232E-16
rhumerus -23.784813031442297 -18.86644711888753 -74.94428961785667
rradius 27.038000730341654
rwrist 6.462996211841613
rhand -15.824521583511753 20.98050670093675
rfingers 7.125020000000034
rthumb 10.34800217838126 -8.499857549640545
lclavicle -6.585731460482592E-16 -3.175988635914907E-16
lhumerus -29.681326201466675 1.425599363875314 78.06795728253698
lradius 28.741886668398188
lwrist 3.169501880003917
lhand -23.84565362127203 23.322660051893727
lfingers 7.12502000000004
lthumb 2.5716240087004074 53.00361701746602
rfemur -2.483675813533509 -8.17606695229037 13.95806914809961
rtibia 39.02154893912548
rfoot -8.982528279628035 -8.19698693390973
rtoes 6.36606139346884
lfemur -14.071721215333099 -0.561077380608177 -20.747554602338322
ltibia 34.2658210412252
lfoot -9.122350666118106 -0.5117892769453896
ltoes -2.1024767335862844
103
root 0 0 0 -0.9829772460436672 -2.7699237546654363 -2.4768044907996725
lowerback 9.386186375051718 0.35294333179316895 0.6674688577553125
upperback -0.029735206036278328 0.6853903063609341 1.737842788479175
thorax -5.191903480939393 0.3561404359902185 1.35690944179942
lowerneck -16.467280083867728 -2.9660266531808093 -1.9345614220642018
upperneck 19.87939488421236 -3.8007109291727343 0.6958247667076018
head 9.04968187467694 -1.8442260381670534 0.07999267433830481
rclavicle -6.588941808233119E-16 -4.795029567250722E-16
rhumerus -23.71376121091108 -18.873662527938293 -74.9000474185328
rradius 27.039817959814894
rwrist 6.4952846719203094
rhand -15.794569536685128 20.955832736954278
rfingers 7.125020000000033
rthumb 10.376588896838868 -8.520837248208988
lclavicle -6.573620680799633E-16 -3.1934381457119896E-16
lhumerus -29.64230002013737 1.434348128631954 78.00648012603237
lradius 28.7519422138555
lwrist 3.140428411202148
lhand -23.80261610135036 23.324025426697958
lfingers 7.125020000000039
lthumb 2.6134866629439344 53.000117312925475
rfemur -2.314469204651928 -8.38027455277124 13.759509951721896
rtibia 39.027965845423836
rfoot -9.00577658228394 -8.223400455535437
rtoes 6.404031282780604
lfemur -14.15221983404929 -0.537860016897902 -20.765867155967058
ltibia 34.293783989884076
lfoot -9.149899824870317 -0.4726589077537007
ltoes -2.0716665524949285
104
root 0 0 0 -1.149337981742395 -2.686001465058343 -2.4378901647614457
lowerback 9.471010181777082 0.34956250762846997 0.6805518659341545
upperback 0.02745074495229538 0.6823373337516165 1.7341565025118832
thorax -5.178464385649545 0.35395503235298226 1.3440683431393419
lowerneck -16.5019607619187 -2.984536094958769 -1.9462145817158456
upperneck 19.85543649617974 -3.820591452109728 0.6783128991735481
head 9.045862177001116 -1.8550128953792835 0.07453566854679194
rclavicle -6.605030102790216E-16 -4.801455649792029E-16
rhumerus -23.937274798748277 -18.850954254881337 -75.04377066528306
rradius 27.03533988158689
rwrist 6.387544751074579
rhand -15.892117018427903 21.035654245105853
rfingers 7.125020000000035
rthumb 10.2826180706169 -8.452321051049363
lclavicle -6.61875620548234E-16 -3.1293557281135307E-16
lhumerus -29.772553892159387 1.4066358596074622 78.21265478399266
lradius 28.717563937766084
lwrist 3.235557622047466
lhand -23.950090295201175 23.3202606323598
lfingers 7.125020000000042
lthumb 2.470902608982751 53.01266642423719
rfemur -2.8371613229762147 -7.744646744424017 14.377080764635181
rtibia 39.00156211787198
rfoot -8.935774167774898 -8.140845518661708
rtoes 6.2833080906266545
lfemur -13.899469925687818 -0.6105329527149514 -20.70954151668421
ltibia 34.203668789912996
lfoot -9.066115836965533 -0.5954614998765564
ltoes -2.1698802385239926
105
root 0 0 0 -1.0856168649485873 -2.7168597419672746 -2.4526030438518296
lowerback 9.438100916721499 0.35064429666780916 0.6753046652361929
upperback 0.005276145344005556 0.6832851485228584 1.7356313144077873
thorax -5.183565364950363 0.3546770559416487 1.349286874412714
lowerneck -16.488364576734718 -2.9777253145302134 -1.941920942623911
upperneck 19.86536917860831 -3.8135332476779262 0.6849186203923274
head 9.047488946326679 -1.8511776403943574 0.07656342161506369
rclavicle -6.607522345258154E-16 -4.803517007502152E-16
rhumerus -23.88546100301513 -18.85711026899657 -75.00532801395856
rradius 27.03664278806193
rwrist 6.41433020645756
rhand -15.868383436533923 21.016330424777404
rfingers 7.125020000000035
rthumb 10.30612580624561 -8.469453395862793
lclavicle -6.606863998364884E-16 -3.151834427210959E-16
lhumerus -29.740635549923738 1.4126516691369257 78.16193133285253
lradius 28.726685746278307
lwrist 3.2139577116950555
lhand -23.912830389854786 23.320642162981937
lfingers 7.125020000000041
lthumb 2.5065927449069214 53.009179980764195
rfemur -2.6658039273432905 -7.9522121305340505 14.178513553468619
rtibia 39.004489543393966
rfoot -8.96021027320258 -8.168327686962762
rtoes 6.321276829440432
lfemur -13.957125070236948 -0.5946727623034036 -20.722265491282748
ltibia 34.22316448203022
lfoot -9.085064220202604 -0.5669177559357728
ltoes -2.1469059650415883
106
root 0 0 0 -1.032180389073801 -2.746311505797543 -2.465677130804554
lowerback 9.411457682956524 0.35211551299079125 0.6714020978238455
upperback -0.01276363865335206 0.6845941736304618 1.7365526747434792
thorax -5.1880555752680815 0.3555796137527608 1.3529932546762558
lowerneck -16.47773148726789 -2.9712394389593646 -1.937826273551066
upperneck 19.871864572681826 -3.806443599712845 0.6907957645175724
head 9.048335859611475 -1.8472070199931534 0.07842708990050151
rclavicle -6.598950683368653E-16 -4.78511434939048E-16
rhumerus -23.783433490138606 -18.8665585910308 -74.94366519828367
rradius 27.037918529218622
rwrist 6.4638365527820625
rhand -15.823987559671949 20.980058665766748
rfingers 7.125020000000034
rthumb 10.348522216230064 -8.500226585905025
lclavicle -6.590569420692192E-16 -3.1722368839876045E-16
lhumerus -29.692240766130347 1.4235414478736033 78.08481565826642
lradius 28.73884642934131
lwrist 3.1772008023247924
lhand -23.85806310256222 23.322436608307964
lfingers 7.12502000000004
lthumb 2.559595539510333 53.004811704016
rfemur -2.482899826087248 -8.173770973267423 13.961306378297621
rtibia 39.01430922237324
rfoot -8.984113775176626 -8.197021248628912
rtoes 6.363756677655381
lfemur -14.066566239673719 -0.5624892730798372 -20.746377236526044
ltibia 34.26447468360624
lfoot -9.120132263129312 -0.5143728386622293
ltoes -2.104589714236859
107
root 0 0 0 -0.9886228193759514 -2.7670715446867327 -2.475283562249854
lowerback 9.389022414170949 0.35279778049929433 0.6677528241852193
upperback -0.027820183492904604 0.6851805984384882 1.7377272458236916
thorax -5.191514653671862 0.35602701713485624 1.356575658311626
lowerneck -16.468412985844672 -2.9666148011059414 -1.9349728362306435
upperneck 19.87856026357666 -3.8014013939165734 0.6952908943356078
head 9.049522966711791 -1.8445681130156024 0.07983177204598535
rclavicle -6.587809025962879E-16 -4.794426687289218E-16
rhumerus -23.710523267182467 -18.873966660381708 -74.89822117528486
rradius 27.03979189256874
rwrist 6.496967964243467
rhand -15.793230348049077 20.954724779318006
rfingers 7.125020000000033
rthumb 10.3778791143926 -8.52176934505174
lclavicle -6.577855448021449E-16 -3.1902978131818856E-16
lhumerus -29.651728481757047 1.4326062111118079 78.021005799438
lradius 28.749298603912067
lwrist 3.1470335849377467
lhand -23.813353486151687 23.323841492821035
lfingers 7.125020000000039
lthumb 2.603081750575978 53.0011624958858
rfemur -2.3102458331375715 -8.382303126681279 13.758495797548036
rtibia 39.021209752757244
rfoot -9.00776521091937 -8.22397942771212
rtoes 6.402622748541422
lfemur -14.149494577440983 -0.5385728181944902 -20.765242153082333
ltibia 34.29326621254006
lfoot -9.148529876692642 -0.47405795439754783
ltoes -2.0728418621698275
